<svg xmlns="http://www.w3.org/2000/svg" viewBox="0 0 512 512">
  <g id="icon">
    <path fill="#E5E7EB" d="M 116 176 A 140 140 0 0 1 396 176 L 396 448 C 365.78 476 334.89 476 302.67 448 C 271.78 476 240.89 476 209.33 448 C 178.44 476 147.56 476 116 448 Z"/>
    <path fill="#6B7280" d="M 161 201 A 95 95 0 0 1 351 201 L 351 387 C 330.78 406 308.89 406 287.67 387 C 266.78 406 245.89 406 224.33 387 C 203.44 406 182.56 406 161 387 Z"/>
    <path fill="#111827" d="M 198.5 223.5 A 57.5 57.5 0 0 1 313.5 223.5 L 313.5 324.5 C 300.72 336 287.94 336 275.17 324.5 C 262.39 336 249.61 336 236.83 324.5 C 224.06 336 211.28 336 198.5 324.5 Z"/>
  </g>
</svg>
